<svg xmlns="http://www.w3.org/2000/svg" viewBox="0 0 744.78 425.14"><g id="_4" data-name="4"><path d="M660.93,276.35c-102.46,68.09-285.57,91.22-380.43,91.22-103.12,0-152.36-28.75-152.36-88.91,0-73.7,120.3-123.28,205.91-136.83-2-6-3-12.89-3-25.12-18.5,1.65-38.34,2.32-59.16,2.32C174.41,119,84.51,79,82.53,5c9.25-11.23,9.91,0,9.91,0,2,67.43,86.93,104.12,179.47,104.12,21.48,0,42-.66,60.82-2.32,11.56-46.27,73.7-85.6,116.34-85.6,33.05,0,40,15.86,40,30.74,0,27.76-57.84,54.53-147.74,63.79-.66,8.26,0,16.86,3,24.46,12.23-1.33,23.14-2.32,33.06-2.32,17.51,0,23.79,7.93,23.79,15.54,0,7.93-5.62,15.2-22.14,15.2-20.16,0-33.05-6.61-40.32-17.52-82.3,11.9-200.63,58.17-200.63,127.58,0,53.55,45.94,79,142.45,79,93.87,0,274.33-19.84,375.47-89.91C656,267.75,660.93,264.78,660.93,276.35ZM343.3,105.8c82.63-8.59,135.85-30.74,135.85-53.87,0-10.25-5-20.82-30.08-20.82C410.73,31.11,355.2,65.15,343.3,105.8Zm7.6,43.63c6.28,5.95,15.54,9.26,28.1,9.26,9.25,0,12.23-2.65,12.23-5.29s-3.64-5.62-13.88-5.62A264,264,0,0,0,350.9,149.43Z" style="fill:#cecde7"/><path d="M0,172.41H98.13v21.48H24V232.1H79.82v20.8H24v47.26h76.88v21.48H0Z" style="fill:#69539c"/><path d="M270.42,169.92V321.64h-24V228l-42.73,56.08h-8.14l-43-56.3v93.83h-24V169.92H137l62.63,83.44,62.63-83.44Z" style="fill:#69539c"/><path d="M308,172.41h54.49c30.07,0,50.65,18.77,50.65,45.67,0,26.69-20.58,45.9-50.65,45.9H331.91v57.66H308Zm54,70.32c17,0,26.45-9.72,26.45-24.42S379,193.66,362,193.66H331.91v49.07Z" style="fill:#69539c"/><path d="M439.76,172.41h24V321.64h-24Z" style="fill:#69539c"/><path d="M595.09,321.64,552.58,264H525.23v57.66h-24V172.41h54.49c30.08,0,50.65,18.77,50.65,45.67,0,19.67-10.85,35-28.71,42.06l44.76,61.5Zm-69.86-78.91H555.3c16.5,0,26.45-9.95,26.45-24.42,0-14.7-10-24.65-26.45-24.65H525.23Z" style="fill:#69539c"/><path d="M643.93,172.41h98.13v21.48H667.9V232.1h55.85v20.8H667.9v47.26h76.88v21.48H643.93Z" style="fill:#69539c"/><path d="M176.71,391.82c.36,16.08-10.24,32.24-31.43,32.24H125.79V360.75h19.4C165.75,360.57,176.44,376.1,176.71,391.82Zm-7.28.09c-.27-12.3-8.35-24.34-24.06-24.34H133.15v49.67h12C161.71,417.51,169.79,404.66,169.43,391.91Z" style="fill:#69539c"/><path d="M222.44,412.39l5.39,3.41a22.37,22.37,0,0,1-18.68,9.25c-15.45,0-23.26-12.12-23.17-23.89s8-23.71,23.08-23.8c14.46-.09,24.07,11.77,21.91,26.32H192.8c.54,7.72,6.29,15,16.35,15A16.6,16.6,0,0,0,222.44,412.39Zm2.25-14.64c-.72-8.35-6.83-14-15.54-14.19-9.88.09-15.09,6.73-16.26,14.19Z" style="fill:#69539c"/><path d="M248.86,378.53l.9,4.22c2.6-2.87,7.72-4.76,13.11-4.85,12.3.27,21.37,6.83,21.37,20.12v26h-7V398c-.09-8.71-6-13.2-14.1-13.74-3.86-.18-9.7,1-13.29,4.49v35.29h-6.92V378.53Z" style="fill:#69539c"/><path d="M315.16,424.33c-9.35,1-16.26-3.59-16.26-13.56V384.1h-7.45v-5.57h7.45V365.78l7-.63v13.38h9.26v5.57H305.9v26.67c0,5.66,3.42,8,9.26,7.54Z" style="fill:#69539c"/><path d="M357.91,424.06l-1-4a19.27,19.27,0,0,1-12.66,5.12c-13.65.09-20.39-6.74-20.39-15.54s7.1-16.25,21.19-16.07c4.05,0,8.18,1.52,11.77,3.41v-2c0-9-6.28-11.4-13.11-11.4A24.81,24.81,0,0,0,329.8,388l-3-4.94a28,28,0,0,1,17.06-5.66c10.15-.09,19.48,4.67,19.48,17.6v29.1Zm-12.76-24.69c-9.78.09-14.81,4.22-14.81,10.23,0,5.39,4.58,9.7,13.92,9.7a17.3,17.3,0,0,0,12.39-5.75V402.6A21.76,21.76,0,0,0,345.15,399.37Z" style="fill:#69539c"/><path d="M391.24,424.24c-9.34,1-14.37-3.59-14.37-13.56V360.75H384v49.93c0,5.12,1.34,7.81,7.27,7.36Z" style="fill:#69539c"/><path d="M472.53,374.49a24.42,24.42,0,0,0-18-7.64c-16.17.27-24.6,13-24.6,26s8.61,25.5,24.6,25.5A25.9,25.9,0,0,0,474,409.24l5.21,4.31a32.13,32.13,0,0,1-24.7,11.59c-20.92,0-32.06-16-32.06-32.33S433.56,360,454.48,360a31.7,31.7,0,0,1,22.81,9.52Z" style="fill:#69539c"/><path d="M522,424.06l-1-4a19.27,19.27,0,0,1-12.66,5.12c-13.65.09-20.39-6.74-20.39-15.54s7.09-16.25,21.19-16.07c4,0,8.18,1.52,11.77,3.41v-2c0-9-6.29-11.4-13.11-11.4a24.81,24.81,0,0,0-13.92,4.4l-3-4.94a28.07,28.07,0,0,1,17.07-5.66c10.15-.09,19.48,4.67,19.48,17.6v29.1Zm-12.76-24.69c-9.79.09-14.81,4.22-14.81,10.23,0,5.39,4.57,9.7,13.92,9.7a17.3,17.3,0,0,0,12.39-5.75V402.6A21.76,21.76,0,0,0,509.19,399.37Z" style="fill:#69539c"/><path d="M547.47,378.26l.71,5.84c4.58-7.73,15-8,21.65-4.67l-2.61,6.1c-9.34-4.4-18.77.81-18.77,11.14v27.39h-7v-45.8Z" style="fill:#69539c"/><path d="M610.16,412.39l5.39,3.41a22.37,22.37,0,0,1-18.68,9.25c-15.45,0-23.26-12.12-23.17-23.89s8-23.71,23.08-23.8c14.46-.09,24.07,11.77,21.91,26.32H580.52c.54,7.72,6.29,15,16.35,15A16.6,16.6,0,0,0,610.16,412.39Zm2.25-14.64c-.72-8.35-6.83-14-15.54-14.19-9.88.09-15.09,6.73-16.26,14.19Z" style="fill:#69539c"/></g></svg>